<svg version="1.1" id="Layer_1" xmlns="http://www.w3.org/2000/svg" xmlns:xlink="http://www.w3.org/1999/xlink" x="0px" y="0px"
	 width="100%" viewBox="0 0 540 293" enable-background="new 0 0 540 293" xml:space="preserve">
<path fill="#000000" opacity="1.000000" stroke="none" 
	d="
M541.000000,103.000000 
	C541.000000,166.999954 541.000000,230.499924 541.000000,293.999908 
	C361.000153,293.999939 181.000290,293.999939 1.000327,293.999969 
	C1.000218,196.333542 1.000218,98.667076 1.000109,1.000458 
	C180.999695,1.000305 360.999390,1.000305 540.999512,1.000153 
	C541.000000,34.833332 541.000000,68.666664 541.000000,103.000000 
M534.000488,115.500000 
	C534.000488,78.427979 534.000488,41.355957 534.000488,4.410854 
	C356.849670,4.410854 180.614563,4.410854 4.367243,4.410854 
	C4.367243,99.394997 4.367243,193.965378 4.367243,288.679199 
	C180.971176,288.679199 357.206360,288.679199 534.000488,288.679199 
	C534.000488,231.070953 534.000488,173.785477 534.000488,115.500000 
z"/>
<path fill="#34538C" opacity="1.000000" stroke="none" 
	d="
M534.000488,116.000000 
	C534.000488,173.785477 534.000488,231.070953 534.000488,288.679199 
	C357.206360,288.679199 180.971176,288.679199 4.367243,288.679199 
	C4.367243,193.965378 4.367243,99.394997 4.367243,4.410854 
	C180.614563,4.410854 356.849670,4.410854 534.000488,4.410854 
	C534.000488,41.355957 534.000488,78.427979 534.000488,116.000000 
M319.499725,283.568726 
	C388.896240,283.568726 458.292725,283.568726 527.718140,283.568726 
	C527.718140,191.824066 527.718140,100.964050 527.718140,10.114397 
	C354.703156,10.114397 182.122925,10.114397 9.329057,10.114397 
	C9.329057,101.264595 9.329057,192.150040 9.329057,283.569031 
	C112.599083,283.569031 215.549408,283.569031 319.499725,283.568726 
z"/>
<path fill="#FC6115" opacity="1.000000" stroke="none" 
	d="
M318.999725,283.568878 
	C215.549408,283.569031 112.599083,283.569031 9.329057,283.569031 
	C9.329057,192.150040 9.329057,101.264595 9.329057,10.114397 
	C182.122925,10.114397 354.703156,10.114397 527.718140,10.114397 
	C527.718140,100.964050 527.718140,191.824066 527.718140,283.568726 
	C458.292725,283.568726 388.896240,283.568726 318.999725,283.568878 
M487.031097,234.141922 
	C486.851196,233.934174 486.671265,233.726410 486.730103,232.872986 
	C488.294006,230.131775 490.051239,227.475937 491.319641,224.604187 
	C491.778900,223.564392 491.068176,222.007843 490.891357,220.687119 
	C489.705658,221.298950 488.012024,221.598328 487.413452,222.571350 
	C481.926056,231.491318 476.580353,240.500183 471.326080,249.560120 
	C470.503815,250.977951 470.349091,252.782944 469.787262,254.754196 
	C479.952942,255.328964 487.376862,251.381836 492.964569,244.253159 
	C494.784698,241.931107 495.019073,238.366135 495.978699,235.369629 
	C493.170593,235.172775 490.362457,234.975922 487.031097,234.141922 
M445.056396,91.538292 
	C433.856567,99.080147 426.496643,109.729301 421.579254,120.146034 
	C394.074036,126.393440 367.730896,132.376907 340.440399,138.575531 
	C341.627808,128.996338 342.663300,119.808044 344.009125,110.665451 
	C344.216187,109.259087 345.574432,107.566750 346.868011,106.844986 
	C362.866730,97.918480 379.909637,92.391937 398.346497,91.846664 
	C399.993744,91.797943 401.954010,92.519325 403.288574,93.522247 
	C407.567535,96.737923 411.360382,96.952049 413.723389,93.716553 
	C415.475067,91.318085 413.690186,84.303856 410.450348,82.834175 
	C407.362823,81.433586 403.918396,80.328270 400.561584,80.096436 
	C384.691742,79.000404 370.708771,87.131630 355.562225,89.719246 
	C352.656372,90.215675 349.868317,91.401550 346.232208,92.511681 
	C349.785126,84.686462 345.699615,79.073807 337.922180,79.858368 
	C332.524567,80.402863 327.156677,81.694702 321.902527,83.120743 
	C307.821136,86.942566 293.874420,91.273903 279.746796,94.907570 
	C268.628204,97.767311 257.332092,99.947479 246.089783,102.310287 
	C241.877762,103.195526 239.463623,107.445518 240.677765,112.357368 
	C241.317017,114.943481 245.651855,117.525757 248.087677,116.648460 
	C253.209030,114.803909 258.220306,112.616959 263.415588,111.023041 
	C271.386353,108.577614 279.474152,106.513649 288.163361,104.107506 
	C288.274719,106.254395 288.537964,107.697289 288.389038,109.096298 
	C287.791168,114.711929 287.066589,120.314079 286.387146,125.920998 
	C284.768860,139.274887 282.704681,152.595398 281.703003,165.995346 
	C281.131073,173.645645 281.142456,181.530106 284.617828,188.899689 
	C286.523773,192.941177 289.555267,194.204742 293.408905,193.093094 
	C295.114166,192.601166 297.073212,190.878265 297.710388,189.243774 
	C298.951752,186.059586 300.008911,182.463333 295.167908,180.630905 
	C294.166199,180.251755 293.183350,178.292801 293.178040,177.057724 
	C293.141785,168.630356 292.759552,160.137482 293.641388,151.787460 
	C295.348694,135.621490 297.760406,119.527794 300.077393,103.432526 
	C300.253632,102.208092 301.791687,100.620697 303.033630,100.202377 
	C309.490967,98.027405 316.046936,96.140556 322.590088,94.227005 
	C326.547028,93.069809 330.543060,92.046463 334.521545,90.962982 
	C334.905792,91.348770 335.290009,91.734566 335.674225,92.120361 
	C334.243561,96.030266 332.692474,99.902275 331.443542,103.869400 
	C330.968292,105.378944 331.099487,107.107269 331.105499,108.735329 
	C331.124542,113.917328 331.501251,119.116966 331.179169,124.274780 
	C330.955292,127.860359 328.842804,131.517685 329.297333,134.912231 
	C330.007965,140.219604 328.692749,143.282135 323.425018,144.318390 
	C319.787598,145.033951 318.401276,147.112167 318.961121,150.741196 
	C319.511383,154.308487 321.600464,155.568253 324.961945,154.955093 
	C328.396606,154.328629 329.179138,155.975266 329.356049,159.094269 
	C329.768341,166.362961 330.101807,173.688934 331.339172,180.840820 
	C332.280701,186.282593 334.272797,191.617554 336.467194,196.711548 
	C336.975586,197.891678 341.886108,198.516373 341.947205,198.351379 
	C343.332977,194.607727 345.572052,190.577515 345.154388,186.883301 
	C343.971985,176.424500 341.631104,166.099091 339.836212,155.705658 
	C339.295166,152.572708 340.701904,151.030289 343.936584,150.163071 
	C363.110077,145.022720 382.184021,139.509247 401.374664,134.436035 
	C405.713348,133.289078 410.381592,133.388855 414.868317,132.917862 
	C415.024872,134.191650 415.184265,134.558594 415.080719,134.822250 
	C414.780823,135.585770 414.363403,136.302185 414.013000,137.046921 
	C409.106873,147.474854 404.594299,158.199600 404.229889,169.785034 
	C403.838806,182.217880 407.944855,188.405823 418.602844,194.074387 
	C430.486877,200.395035 442.773834,199.504883 455.361145,196.381882 
	C470.931610,192.518707 485.670471,186.643143 499.779419,179.136093 
	C501.514282,178.212997 504.086395,175.581451 503.750580,174.660461 
	C502.720123,171.834366 500.238739,170.878555 496.874969,172.058167 
	C483.738403,176.664902 470.666168,181.582672 457.256653,185.233994 
	C449.587860,187.322128 441.298340,187.937317 433.320923,187.758652 
	C429.077301,187.663605 424.007019,185.418335 420.875336,182.476929 
	C413.233551,175.299377 414.162598,165.901382 417.289581,156.997314 
	C420.013916,149.239807 423.634583,141.778656 427.140350,134.318695 
	C431.462585,125.121368 435.296082,115.532333 443.465393,108.813301 
	C446.985626,105.918045 449.269531,101.051987 456.334961,100.962791 
	C454.489899,104.453850 453.258392,107.201813 451.642273,109.701057 
	C450.483765,111.492615 448.707520,112.871628 447.389832,114.576141 
	C445.060486,117.589378 446.734802,120.422859 449.061493,121.836426 
	C450.925903,122.969131 454.973511,123.522644 456.080200,122.396019 
	C462.951141,115.401535 468.305847,107.243660 467.655457,96.947144 
	C467.483246,94.220596 464.957031,90.942574 462.574890,89.193916 
	C456.666290,84.856552 450.975067,87.470306 445.056396,91.538292 
M67.366440,94.197029 
	C66.540192,95.887444 66.109306,97.996971 64.828354,99.205391 
	C45.762962,117.191177 43.403172,144.776047 59.332516,164.585938 
	C62.864620,168.978485 67.134560,171.621964 72.992905,171.586258 
	C88.978134,171.488831 104.964394,171.509323 120.950012,171.558670 
	C125.817299,171.573685 129.726486,169.606171 132.728622,165.989304 
	C144.529175,151.772430 147.582352,135.860367 141.478439,118.357300 
	C138.333115,109.338020 132.423019,102.227913 124.993080,96.239311 
	C126.995659,92.334763 128.901993,88.841766 130.607727,85.253426 
	C138.116562,69.457153 127.393921,52.258331 109.964005,52.143501 
	C100.636131,52.082043 91.303558,51.964157 81.980141,52.178368 
	C68.259743,52.493599 57.780777,65.565910 60.903831,78.929939 
	C62.089527,84.003716 64.926498,88.691605 67.366440,94.197029 
M196.041412,150.500000 
	C196.041412,167.089920 196.041412,183.679840 196.041412,200.396667 
	C198.676407,200.396667 200.714066,200.396667 202.687759,200.396667 
	C202.687759,144.509308 202.687759,89.007576 202.687759,33.503265 
	C200.389343,33.503265 198.465775,33.503265 196.041412,33.503265 
	C196.041412,72.353508 196.041412,110.926758 196.041412,150.500000 
M253.929871,224.379059 
	C250.222092,229.902176 246.338455,235.317566 242.866196,240.984985 
	C240.407455,244.998169 238.438049,249.320679 236.428589,253.589096 
	C236.136139,254.210312 236.839142,255.300156 237.081512,256.173157 
	C237.943405,255.879852 239.054230,255.823517 239.610458,255.239227 
	C240.506042,254.298386 241.253616,253.085251 241.683060,251.854370 
	C243.779449,245.845276 248.647598,243.806427 254.289886,242.799301 
	C255.437271,242.594498 256.678192,242.622589 257.718140,242.175873 
	C259.222015,241.529846 260.581940,240.548599 262.003296,239.710388 
	C260.534943,239.078156 259.096405,238.019196 257.591187,237.913956 
	C255.346878,237.757050 253.055542,238.272751 250.256409,238.555603 
	C252.168671,233.535629 254.450485,229.761063 259.642181,228.666626 
	C263.225830,227.911163 266.829742,227.203430 270.346497,226.200470 
	C271.948761,225.743530 273.362274,224.624725 274.861420,223.806137 
	C274.653687,223.163971 274.445953,222.521805 274.238220,221.879639 
	C267.657104,222.564407 261.075989,223.249176 253.929871,224.379059 
M414.745300,244.312607 
	C417.882202,237.231750 423.957458,233.178696 430.184143,229.255203 
	C432.867706,227.564255 435.420776,226.535034 438.345642,230.070374 
	C439.173523,227.868286 440.193512,225.282211 439.350281,224.306778 
	C438.287659,223.077499 435.394501,222.277969 433.825745,222.825348 
	C423.386292,226.468002 415.586426,233.478592 410.070923,242.989441 
	C409.284912,244.344864 409.009491,246.172348 409.019073,247.778229 
	C409.042297,251.665131 410.838318,254.558853 415.081085,253.693680 
	C419.892273,252.712601 424.602661,251.073563 429.200165,249.311737 
	C430.511292,248.809280 431.277557,246.885071 432.293671,245.612808 
	C432.009216,245.208466 431.724731,244.804123 431.440277,244.399765 
	C429.838928,244.867538 428.226532,245.300842 426.638672,245.810623 
	C423.803497,246.720901 421.033081,247.901703 418.141235,248.545731 
	C415.690613,249.091492 413.745667,248.351883 414.745300,244.312607 
M64.582069,231.839294 
	C60.461040,238.694229 56.340015,245.549149 52.218990,252.404083 
	C52.863476,252.969360 53.507961,253.534637 54.152447,254.099915 
	C55.528378,253.020569 57.311577,252.203629 58.206657,250.814453 
	C61.354046,245.929703 64.453117,240.979492 67.092720,235.810135 
	C70.850502,228.450943 75.141548,222.444794 84.825142,225.038376 
	C85.129738,225.119965 85.636742,225.146225 85.791130,224.970886 
	C86.592392,224.060913 87.625832,223.159088 87.905975,222.079880 
	C88.023682,221.626465 86.527565,220.201416 85.694901,220.137863 
	C75.157921,219.333618 65.219246,221.698792 55.841465,226.401260 
	C54.995831,226.825317 54.815655,228.576431 54.326439,229.711227 
	C55.486576,229.958511 56.764931,230.643219 57.783813,230.367844 
	C60.427010,229.653503 62.956032,228.516678 66.450569,227.202499 
	C65.700897,229.183472 65.324883,230.177063 64.582069,231.839294 
M452.478363,250.298553 
	C452.793182,248.656845 452.751495,246.827591 453.496124,245.411957 
	C455.114685,242.334976 457.268799,239.540619 458.905060,236.471390 
	C459.370544,235.598312 458.806946,234.176620 458.715302,233.006500 
	C457.630768,233.170837 455.907410,232.963242 455.561401,233.557541 
	C452.411377,238.967972 448.937225,244.302246 446.716949,250.102463 
	C445.204041,254.054779 448.813843,256.766602 452.925903,255.252686 
	C455.207001,254.412872 457.262115,252.959290 458.953552,252.036362 
	C460.105591,253.125702 460.988525,254.628326 461.983063,254.706223 
	C462.908447,254.778717 464.379425,253.540787 464.873901,252.522278 
	C467.618774,246.868408 470.194427,241.129410 472.686859,235.358597 
	C473.151398,234.283035 472.973053,232.929794 473.091431,231.704712 
	C472.601044,231.383789 472.110657,231.062866 471.620239,230.741928 
	C470.126770,232.295486 468.291077,233.641876 467.202362,235.440445 
	C463.577240,241.429199 460.225922,247.585449 452.478363,250.298553 
M191.848587,236.408340 
	C193.866867,234.163971 193.614441,232.793686 190.352066,232.946823 
	C188.443176,233.036438 186.551483,233.492599 183.826355,233.910477 
	C184.733337,231.918060 185.504242,230.824463 185.705536,229.634506 
	C185.972794,228.054474 185.795639,226.399261 185.809448,224.776352 
	C184.429077,225.823807 182.734512,226.635025 181.732880,227.967239 
	C179.558899,230.858673 179.151031,235.399155 174.056732,235.387421 
	C173.424515,235.385971 172.126068,237.119247 172.252975,237.311447 
	C175.043701,241.538498 171.083267,244.592682 170.455536,248.183685 
	C169.764404,252.137177 171.472565,254.427322 175.334274,254.431580 
	C180.630676,254.437439 187.387863,248.539215 188.508636,242.483276 
	C184.297760,245.079468 180.364899,247.504242 175.478134,250.517136 
	C176.810364,241.945190 178.648529,239.900192 184.940552,238.428467 
	C187.040955,237.937195 189.119736,237.353516 191.848587,236.408340 
M299.459503,235.896637 
	C301.086151,233.010849 299.265350,232.770294 297.127197,232.967850 
	C295.277557,233.138718 293.446259,233.507599 290.882660,233.899750 
	C291.696899,232.014999 292.315643,231.150162 292.416992,230.228394 
	C292.619629,228.386169 292.538727,226.512741 292.574860,224.652206 
	C291.244598,225.830475 289.611938,226.803909 288.646515,228.229279 
	C286.584991,231.272903 285.764587,235.440842 280.833832,235.488541 
	C280.266693,235.494019 279.086273,237.373398 279.246124,237.584518 
	C282.199921,241.485962 278.352112,244.255417 277.668457,247.497467 
	C277.016998,250.586945 277.018158,253.213791 280.676666,254.213135 
	C286.157166,255.710175 294.975525,248.815582 295.262115,242.664764 
	C290.627075,243.775604 288.454590,250.129364 282.403961,248.862183 
	C283.897278,243.262558 285.840027,238.838196 292.251801,238.299988 
	C294.503998,238.110931 296.683899,237.060043 299.459503,235.896637 
M310.620300,241.020203 
	C313.498047,239.470490 316.375793,237.920776 319.253540,236.371063 
	C319.539032,236.777557 319.824524,237.184052 320.110016,237.590530 
	C316.544189,243.096054 312.978363,248.601562 309.412537,254.107086 
	C309.896423,254.556747 310.380280,255.006424 310.864136,255.456085 
	C312.083191,254.902206 313.772278,254.682297 314.442810,253.738663 
	C318.002380,248.729385 321.493469,243.647064 324.574036,238.338043 
	C325.398010,236.918015 325.334503,234.208878 324.475067,232.856049 
	C323.894226,231.941757 321.208832,232.256882 319.460876,232.222687 
	C317.810333,232.190384 316.143494,232.337265 314.504364,232.557770 
	C312.825317,232.783646 310.400635,232.611511 309.635651,233.622482 
	C305.729065,238.785263 302.129578,244.197678 298.724670,249.709335 
	C297.976501,250.920456 298.456207,252.890091 298.370453,254.510452 
	C299.741608,253.612946 301.439819,252.980042 302.421112,251.767151 
	C305.108582,248.445480 307.494354,244.879761 310.620300,241.020203 
M149.750946,243.253830 
	C153.485413,240.842667 157.219879,238.431503 160.954346,236.020355 
	C161.347534,236.520523 161.740723,237.020706 162.133911,237.520874 
	C158.520096,243.034973 154.906281,248.549072 150.579224,255.151489 
	C153.328201,254.973328 154.794037,255.272659 155.115204,254.797791 
	C159.274231,248.648560 163.387756,242.457748 167.129761,236.053619 
	C167.511795,235.399826 165.660492,232.370453 164.426819,232.048645 
	C161.045670,231.166641 157.406235,234.983307 153.830154,231.798737 
	C153.670715,231.656754 152.099182,232.676880 151.581375,233.428513 
	C147.710800,239.046692 143.850937,244.677719 140.225601,250.454025 
	C139.619797,251.419250 140.168472,253.109070 140.183685,254.464081 
	C141.493790,253.761703 143.224869,253.373749 144.030716,252.294769 
	C146.012192,249.641724 147.567978,246.670731 149.750946,243.253830 
M342.893219,249.914948 
	C343.854340,246.700439 341.858368,247.454727 340.248230,248.043533 
	C338.076508,248.837708 336.040405,250.201843 333.818665,250.587723 
	C332.410675,250.832275 330.770782,249.741653 329.234894,249.249832 
	C330.440186,248.380737 331.546997,247.301239 332.869354,246.682312 
	C336.701508,244.888748 340.841064,243.632706 344.387390,241.411224 
	C345.659546,240.614334 345.582977,237.664291 346.121948,235.696930 
	C344.187775,235.193039 341.652740,233.652863 340.423859,234.365372 
	C335.210999,237.387894 329.989227,240.655975 325.625671,244.746384 
	C324.012054,246.258957 323.879700,250.597015 324.764954,253.030487 
	C325.242798,254.344040 329.479736,255.229843 331.693695,254.761749 
	C335.434937,253.970749 338.916565,251.951691 342.893219,249.914948 
M135.276260,232.260422 
	C127.045006,235.084747 120.534477,240.014801 117.084488,248.163391 
	C115.021927,253.035004 117.495018,256.042725 122.683228,255.625381 
	C130.115967,255.027481 140.473862,245.600479 141.621674,238.389023 
	C142.300507,234.123978 140.554062,232.161987 135.276260,232.260422 
M196.489944,255.660126 
	C205.740524,253.787064 211.944916,248.185471 215.256363,239.563614 
	C217.113602,234.728043 214.433945,230.908188 210.261658,232.048370 
	C201.672852,234.395401 195.079483,239.551102 191.258087,247.687454 
	C189.105835,252.269943 190.568253,254.516052 196.489944,255.660126 
M75.295319,243.866089 
	C74.477211,245.491089 73.426003,247.042633 72.886154,248.755341 
	C71.456528,253.290970 73.564163,255.878494 78.298775,255.658691 
	C85.784050,255.311157 96.580620,245.597275 97.631035,238.265060 
	C98.336510,233.340637 95.298744,230.330444 90.983643,232.612747 
	C85.538872,235.492538 80.780067,239.669266 75.295319,243.866089 
M377.947968,250.487289 
	C383.181213,245.541885 379.354767,242.651062 374.814148,239.452042 
	C377.828522,238.209991 380.433746,237.879959 382.918121,237.142746 
	C384.192017,236.764725 385.250000,235.659103 386.405548,234.882324 
	C385.352264,233.936523 384.136383,232.063461 383.275421,232.214417 
	C380.405609,232.717636 377.456757,233.571228 374.911377,234.969757 
	C367.961456,238.788284 367.887695,242.237610 374.313721,246.750763 
	C374.525940,246.899796 374.532318,247.341873 374.893494,248.420212 
	C372.153229,249.013977 369.446259,249.420837 366.867523,250.234299 
	C365.558594,250.647186 364.480865,251.792938 363.298615,252.607376 
	C364.622742,253.340134 366.156982,254.917664 367.232361,254.650192 
	C370.715576,253.783951 374.030457,252.240631 377.947968,250.487289 
M364.687897,237.104080 
	C365.908813,236.450974 367.245392,235.928589 368.254181,235.035812 
	C368.458954,234.854568 367.672455,232.847824 366.921997,232.418686 
	C364.130249,230.822266 354.816925,234.778748 352.489258,238.493607 
	C349.498535,243.266678 353.594757,244.816681 356.444641,246.924072 
	C356.608490,247.045242 356.509644,247.521759 356.589417,248.581665 
	C353.991974,249.099121 351.267303,249.489105 348.642670,250.232391 
	C347.418945,250.578979 346.389008,251.610016 345.271210,252.330780 
	C346.506622,253.158859 347.835114,254.787079 348.958984,254.656342 
	C351.698822,254.337570 354.507477,253.540771 356.995514,252.333054 
	C363.683838,249.086441 363.924072,245.220306 357.970917,241.058075 
	C357.645538,240.830566 357.560120,240.259827 357.012634,239.118469 
	C359.485199,238.313492 361.728516,237.583145 364.687897,237.104080 
M437.880127,243.286377 
	C436.567352,245.588501 434.979797,247.786057 434.048615,250.233368 
	C433.520081,251.622391 434.066650,253.420502 434.129028,255.034378 
	C435.524384,254.173538 437.485443,253.647369 438.224365,252.398239 
	C443.534241,243.422211 448.674622,234.342133 453.653839,225.178253 
	C454.421997,223.764526 454.088501,221.752228 454.264465,220.016739 
	C452.747070,220.970398 450.665192,221.570419 449.808441,222.937958 
	C445.765472,229.391449 442.057922,236.055084 437.880127,243.286377 
M107.396164,242.948395 
	C110.290756,241.466629 113.108536,239.790802 116.118134,238.599640 
	C117.304604,238.130051 119.397598,239.337708 120.202507,238.691467 
	C120.991470,238.058014 121.296829,235.558945 120.676987,234.746445 
	C119.859375,233.674698 117.955864,233.036591 116.477272,232.952942 
	C114.027771,232.814377 111.391403,235.970428 109.134285,232.442871 
	C108.218925,233.046371 106.915245,233.437820 106.451164,234.287735 
	C103.423058,239.833359 100.484795,245.434235 97.756683,251.131729 
	C97.267906,252.152496 97.893486,253.706833 98.004555,255.014816 
	C99.191826,254.367752 100.820198,254.014664 101.483971,253.018707 
	C103.505005,249.986252 105.153923,246.705795 107.396164,242.948395 
M262.902863,249.234970 
	C262.268951,250.400360 261.350616,251.507324 261.095245,252.750488 
	C260.906616,253.668716 261.372223,254.932022 261.980988,255.694748 
	C262.209290,255.980820 264.123047,255.576996 264.491669,254.995422 
	C268.617889,248.485077 272.592224,241.878479 276.607452,235.297791 
	C276.063110,234.767609 275.518738,234.237427 274.974365,233.707245 
	C273.398712,234.836075 271.393250,235.659836 270.332550,237.154205 
	C267.739838,240.806946 265.583984,244.769760 262.902863,249.234970 
M280.263092,223.774368 
	C278.892731,224.831116 277.364471,225.753540 276.267700,227.042984 
	C276.007111,227.349396 277.355347,229.762665 277.682159,229.701584 
	C279.047333,229.446365 280.856201,228.931625 281.440125,227.906754 
	C281.972015,226.973267 281.131866,225.258041 280.263092,223.774368 
z"/>
<path fill="#090401" opacity="1.000000" stroke="none" 
	d="
M445.360413,91.331993 
	C450.975067,87.470306 456.666290,84.856552 462.574890,89.193916 
	C464.957031,90.942574 467.483246,94.220596 467.655457,96.947144 
	C468.305847,107.243660 462.951141,115.401535 456.080200,122.396019 
	C454.973511,123.522644 450.925903,122.969131 449.061493,121.836426 
	C446.734802,120.422859 445.060486,117.589378 447.389832,114.576141 
	C448.707520,112.871628 450.483765,111.492615 451.642273,109.701057 
	C453.258392,107.201813 454.489899,104.453850 456.334961,100.962791 
	C449.269531,101.051987 446.985626,105.918045 443.465393,108.813301 
	C435.296082,115.532333 431.462585,125.121368 427.140350,134.318695 
	C423.634583,141.778656 420.013916,149.239807 417.289581,156.997314 
	C414.162598,165.901382 413.233551,175.299377 420.875336,182.476929 
	C424.007019,185.418335 429.077301,187.663605 433.320923,187.758652 
	C441.298340,187.937317 449.587860,187.322128 457.256653,185.233994 
	C470.666168,181.582672 483.738403,176.664902 496.874969,172.058167 
	C500.238739,170.878555 502.720123,171.834366 503.750580,174.660461 
	C504.086395,175.581451 501.514282,178.212997 499.779419,179.136093 
	C485.670471,186.643143 470.931610,192.518707 455.361145,196.381882 
	C442.773834,199.504883 430.486877,200.395035 418.602844,194.074387 
	C407.944855,188.405823 403.838806,182.217880 404.229889,169.785034 
	C404.594299,158.199600 409.106873,147.474854 414.013000,137.046921 
	C414.363403,136.302185 414.780823,135.585770 415.080719,134.822250 
	C415.184265,134.558594 415.024872,134.191650 414.868317,132.917862 
	C410.381592,133.388855 405.713348,133.289078 401.374664,134.436035 
	C382.184021,139.509247 363.110077,145.022720 343.936584,150.163071 
	C340.701904,151.030289 339.295166,152.572708 339.836212,155.705658 
	C341.631104,166.099091 343.971985,176.424500 345.154388,186.883301 
	C345.572052,190.577515 343.332977,194.607727 341.947205,198.351379 
	C341.886108,198.516373 336.975586,197.891678 336.467194,196.711548 
	C334.272797,191.617554 332.280701,186.282593 331.339172,180.840820 
	C330.101807,173.688934 329.768341,166.362961 329.356049,159.094269 
	C329.179138,155.975266 328.396606,154.328629 324.961945,154.955093 
	C321.600464,155.568253 319.511383,154.308487 318.961121,150.741196 
	C318.401276,147.112167 319.787598,145.033951 323.425018,144.318390 
	C328.692749,143.282135 330.007965,140.219604 329.297333,134.912231 
	C328.842804,131.517685 330.955292,127.860359 331.179169,124.274780 
	C331.501251,119.116966 331.124542,113.917328 331.105499,108.735329 
	C331.099487,107.107269 330.968292,105.378944 331.443542,103.869400 
	C332.692474,99.902275 334.243561,96.030266 335.674225,92.120361 
	C335.290009,91.734566 334.905792,91.348770 334.521545,90.962982 
	C330.543060,92.046463 326.547028,93.069809 322.590088,94.227005 
	C316.046936,96.140556 309.490967,98.027405 303.033630,100.202377 
	C301.791687,100.620697 300.253632,102.208092 300.077393,103.432526 
	C297.760406,119.527794 295.348694,135.621490 293.641388,151.787460 
	C292.759552,160.137482 293.141785,168.630356 293.178040,177.057724 
	C293.183350,178.292801 294.166199,180.251755 295.167908,180.630905 
	C300.008911,182.463333 298.951752,186.059586 297.710388,189.243774 
	C297.073212,190.878265 295.114166,192.601166 293.408905,193.093094 
	C289.555267,194.204742 286.523773,192.941177 284.617828,188.899689 
	C281.142456,181.530106 281.131073,173.645645 281.703003,165.995346 
	C282.704681,152.595398 284.768860,139.274887 286.387146,125.920998 
	C287.066589,120.314079 287.791168,114.711929 288.389038,109.096298 
	C288.537964,107.697289 288.274719,106.254395 288.163361,104.107506 
	C279.474152,106.513649 271.386353,108.577614 263.415588,111.023041 
	C258.220306,112.616959 253.209030,114.803909 248.087677,116.648460 
	C245.651855,117.525757 241.317017,114.943481 240.677765,112.357368 
	C239.463623,107.445518 241.877762,103.195526 246.089783,102.310287 
	C257.332092,99.947479 268.628204,97.767311 279.746796,94.907570 
	C293.874420,91.273903 307.821136,86.942566 321.902527,83.120743 
	C327.156677,81.694702 332.524567,80.402863 337.922180,79.858368 
	C345.699615,79.073807 349.785126,84.686462 346.232208,92.511681 
	C349.868317,91.401550 352.656372,90.215675 355.562225,89.719246 
	C370.708771,87.131630 384.691742,79.000404 400.561584,80.096436 
	C403.918396,80.328270 407.362823,81.433586 410.450348,82.834175 
	C413.690186,84.303856 415.475067,91.318085 413.723389,93.716553 
	C411.360382,96.952049 407.567535,96.737923 403.288574,93.522247 
	C401.954010,92.519325 399.993744,91.797943 398.346497,91.846664 
	C379.909637,92.391937 362.866730,97.918480 346.868011,106.844986 
	C345.574432,107.566750 344.216187,109.259087 344.009125,110.665451 
	C342.663300,119.808044 341.627808,128.996338 340.440399,138.575531 
	C367.730896,132.376907 394.074036,126.393440 421.579254,120.146034 
	C426.496643,109.729301 433.856567,99.080147 445.360413,91.331993 
z"/>
<path fill="#0C0603" opacity="1.000000" stroke="none" 
	d="
M67.188644,93.876205 
	C64.926498,88.691605 62.089527,84.003716 60.903831,78.929939 
	C57.780777,65.565910 68.259743,52.493599 81.980141,52.178368 
	C91.303558,51.964157 100.636131,52.082043 109.964005,52.143501 
	C127.393921,52.258331 138.116562,69.457153 130.607727,85.253426 
	C128.901993,88.841766 126.995659,92.334763 124.993080,96.239311 
	C132.423019,102.227913 138.333115,109.338020 141.478439,118.357300 
	C147.582352,135.860367 144.529175,151.772430 132.728622,165.989304 
	C129.726486,169.606171 125.817299,171.573685 120.950012,171.558670 
	C104.964394,171.509323 88.978134,171.488831 72.992905,171.586258 
	C67.134560,171.621964 62.864620,168.978485 59.332516,164.585938 
	C43.403172,144.776047 45.762962,117.191177 64.828354,99.205391 
	C66.109306,97.996971 66.540192,95.887444 67.188644,93.876205 
M59.095543,120.863533 
	C54.518620,134.810150 55.954021,147.934402 65.407043,159.409393 
	C67.442154,161.879791 71.467117,163.925949 74.646133,164.031097 
	C89.295303,164.515564 103.978325,164.513290 118.627731,164.032028 
	C121.814758,163.927338 125.864349,161.916931 127.889175,159.448975 
	C136.879822,148.490753 139.110458,135.798248 134.701324,122.353287 
	C129.561066,106.678879 115.389221,95.910622 99.833313,95.156807 
	C81.198685,94.253815 67.284393,102.830032 59.095543,120.863533 
M112.936272,90.059204 
	C114.621063,90.678391 116.305855,91.297569 118.317490,92.036873 
	C120.214058,88.467079 122.155571,85.190987 123.743752,81.751740 
	C128.331009,71.817879 122.603653,60.755981 111.681763,59.854877 
	C101.770729,59.037178 91.698944,59.100849 81.773842,59.820904 
	C71.855347,60.540474 65.531006,70.278137 68.638870,79.224571 
	C70.189232,83.687492 72.776070,87.790359 75.001137,92.271706 
	C77.973854,90.968582 80.335526,89.933311 82.814194,88.846764 
	C81.143562,85.570801 79.589844,82.811005 78.299080,79.933250 
	C75.611191,73.940605 79.034218,68.392258 85.677177,68.116196 
	C90.995308,67.895180 96.327469,67.963844 101.653152,67.981537 
	C116.539619,68.030998 118.830414,71.848900 112.312180,85.311455 
	C111.722527,86.529297 112.278793,88.301971 112.936272,90.059204 
M105.705276,81.215767 
	C106.459229,79.640076 107.213181,78.064377 108.062019,76.290375 
	C100.197830,76.290375 93.007492,76.290375 85.817154,76.290375 
	C85.551277,76.623672 85.285400,76.956963 85.019524,77.290260 
	C88.762810,79.904800 87.185898,86.593712 93.303070,87.125549 
	C98.012177,87.534966 103.626358,88.861191 105.705276,81.215767 
z"/>
<path fill="#FFFCFB" opacity="1.000000" stroke="none" 
	d="
M196.041412,150.000000 
	C196.041412,110.926758 196.041412,72.353508 196.041412,33.503265 
	C198.465775,33.503265 200.389343,33.503265 202.687759,33.503265 
	C202.687759,89.007576 202.687759,144.509308 202.687759,200.396667 
	C200.714066,200.396667 198.676407,200.396667 196.041412,200.396667 
	C196.041412,183.679840 196.041412,167.089920 196.041412,150.000000 
z"/>
<path fill="#FFEFE7" opacity="1.000000" stroke="none" 
	d="
M487.554352,234.779053 
	C490.362457,234.975922 493.170593,235.172775 495.978699,235.369629 
	C495.019073,238.366135 494.784698,241.931107 492.964569,244.253159 
	C487.376862,251.381836 479.952942,255.328964 469.787262,254.754196 
	C470.349091,252.782944 470.503815,250.977951 471.326080,249.560120 
	C476.580353,240.500183 481.926056,231.491318 487.413452,222.571350 
	C488.012024,221.598328 489.705658,221.298950 490.891357,220.687103 
	C491.068176,222.007843 491.778900,223.564392 491.319641,224.604187 
	C490.051239,227.475937 488.294006,230.131775 486.424194,233.455505 
	C486.596985,234.285034 487.075653,234.532043 487.554352,234.779053 
M477.383057,247.365524 
	C477.168640,248.191483 476.954224,249.017441 476.530151,250.651001 
	C483.378448,248.342407 488.326050,245.244186 491.764008,238.027786 
	C485.292877,239.791199 480.630951,241.741501 477.383057,247.365524 
z"/>
<path fill="#FFEFE7" opacity="1.000000" stroke="none" 
	d="
M254.212372,224.156494 
	C261.075989,223.249176 267.657104,222.564407 274.238220,221.879639 
	C274.445953,222.521805 274.653687,223.163971 274.861420,223.806137 
	C273.362274,224.624725 271.948761,225.743530 270.346497,226.200470 
	C266.829742,227.203430 263.225830,227.911163 259.642181,228.666626 
	C254.450485,229.761063 252.168671,233.535629 250.256409,238.555603 
	C253.055542,238.272751 255.346878,237.757050 257.591187,237.913956 
	C259.096405,238.019196 260.534943,239.078156 262.003296,239.710388 
	C260.581940,240.548599 259.222015,241.529846 257.718140,242.175873 
	C256.678192,242.622589 255.437271,242.594498 254.289886,242.799301 
	C248.647598,243.806427 243.779449,245.845276 241.683060,251.854370 
	C241.253616,253.085251 240.506042,254.298386 239.610458,255.239227 
	C239.054230,255.823517 237.943405,255.879852 237.081512,256.173157 
	C236.839142,255.300156 236.136139,254.210312 236.428589,253.589096 
	C238.438049,249.320679 240.407455,244.998169 242.866196,240.984985 
	C246.338455,235.317566 250.222092,229.902176 254.212372,224.156494 
z"/>
<path fill="#FFEFE7" opacity="1.000000" stroke="none" 
	d="
M414.578339,244.722534 
	C413.745667,248.351883 415.690613,249.091492 418.141235,248.545731 
	C421.033081,247.901703 423.803497,246.720901 426.638672,245.810623 
	C428.226532,245.300842 429.838928,244.867538 431.440277,244.399765 
	C431.724731,244.804123 432.009216,245.208466 432.293671,245.612808 
	C431.277557,246.885071 430.511292,248.809280 429.200165,249.311737 
	C424.602661,251.073563 419.892273,252.712601 415.081085,253.693680 
	C410.838318,254.558853 409.042297,251.665131 409.019073,247.778229 
	C409.009491,246.172348 409.284912,244.344864 410.070923,242.989441 
	C415.586426,233.478592 423.386292,226.468002 433.825745,222.825348 
	C435.394501,222.277969 438.287659,223.077499 439.350281,224.306778 
	C440.193512,225.282211 439.173523,227.868286 438.345642,230.070374 
	C435.420776,226.535034 432.867706,227.564255 430.184143,229.255203 
	C423.957458,233.178696 417.882202,237.231750 414.578339,244.722534 
z"/>
<path fill="#FFF1EA" opacity="1.000000" stroke="none" 
	d="
M64.765472,231.504974 
	C65.324883,230.177063 65.700897,229.183472 66.450569,227.202499 
	C62.956032,228.516678 60.427010,229.653503 57.783813,230.367844 
	C56.764931,230.643219 55.486576,229.958511 54.326435,229.711243 
	C54.815655,228.576431 54.995831,226.825317 55.841465,226.401260 
	C65.219246,221.698792 75.157921,219.333618 85.694901,220.137863 
	C86.527565,220.201416 88.023682,221.626465 87.905975,222.079880 
	C87.625832,223.159088 86.592392,224.060913 85.791130,224.970886 
	C85.636742,225.146225 85.129738,225.119965 84.825142,225.038376 
	C75.141548,222.444794 70.850502,228.450943 67.092720,235.810135 
	C64.453117,240.979492 61.354046,245.929703 58.206657,250.814453 
	C57.311577,252.203629 55.528378,253.020569 54.152447,254.099915 
	C53.507961,253.534637 52.863476,252.969360 52.218990,252.404083 
	C56.340015,245.549149 60.461040,238.694229 64.765472,231.504974 
z"/>
<path fill="#FFF0E8" opacity="1.000000" stroke="none" 
	d="
M452.876892,250.379364 
	C460.225922,247.585449 463.577240,241.429199 467.202362,235.440445 
	C468.291077,233.641876 470.126770,232.295486 471.620239,230.741928 
	C472.110657,231.062866 472.601044,231.383789 473.091431,231.704712 
	C472.973053,232.929794 473.151398,234.283035 472.686859,235.358597 
	C470.194427,241.129410 467.618774,246.868408 464.873901,252.522278 
	C464.379425,253.540787 462.908447,254.778717 461.983063,254.706223 
	C460.988525,254.628326 460.105591,253.125702 458.953552,252.036362 
	C457.262115,252.959290 455.207001,254.412872 452.925903,255.252686 
	C448.813843,256.766602 445.204041,254.054779 446.716949,250.102463 
	C448.937225,244.302246 452.411377,238.967972 455.561401,233.557541 
	C455.907410,232.963242 457.630768,233.170837 458.715271,233.006500 
	C458.806946,234.176620 459.370544,235.598312 458.905060,236.471390 
	C457.268799,239.540619 455.114685,242.334976 453.496124,245.411957 
	C452.751495,246.827591 452.793182,248.656845 452.876892,250.379364 
z"/>
<path fill="#FFEFE7" opacity="1.000000" stroke="none" 
	d="
M191.528488,236.610199 
	C189.119736,237.353516 187.040955,237.937195 184.940552,238.428467 
	C178.648529,239.900192 176.810364,241.945190 175.478134,250.517136 
	C180.364899,247.504242 184.297760,245.079468 188.508636,242.483276 
	C187.387863,248.539215 180.630676,254.437439 175.334274,254.431580 
	C171.472565,254.427322 169.764404,252.137177 170.455536,248.183685 
	C171.083267,244.592682 175.043701,241.538498 172.252975,237.311447 
	C172.126068,237.119247 173.424515,235.385971 174.056732,235.387421 
	C179.151031,235.399155 179.558899,230.858673 181.732880,227.967239 
	C182.734512,226.635025 184.429077,225.823807 185.809448,224.776352 
	C185.795639,226.399261 185.972794,228.054474 185.705536,229.634506 
	C185.504242,230.824463 184.733337,231.918060 183.826355,233.910477 
	C186.551483,233.492599 188.443176,233.036438 190.352066,232.946823 
	C193.614441,232.793686 193.866867,234.163971 191.528488,236.610199 
z"/>
<path fill="#FFEFE7" opacity="1.000000" stroke="none" 
	d="
M299.178162,236.149658 
	C296.683899,237.060043 294.503998,238.110931 292.251801,238.299988 
	C285.840027,238.838196 283.897278,243.262558 282.403961,248.862183 
	C288.454590,250.129364 290.627075,243.775604 295.262115,242.664764 
	C294.975525,248.815582 286.157166,255.710175 280.676666,254.213135 
	C277.018158,253.213791 277.016998,250.586945 277.668457,247.497467 
	C278.352112,244.255417 282.199921,241.485962 279.246124,237.584518 
	C279.086273,237.373398 280.266693,235.494019 280.833832,235.488541 
	C285.764587,235.440842 286.584991,231.272903 288.646515,228.229279 
	C289.611938,226.803909 291.244598,225.830475 292.574890,224.652206 
	C292.538727,226.512741 292.619629,228.386169 292.416992,230.228394 
	C292.315643,231.150162 291.696899,232.014999 290.882660,233.899750 
	C293.446259,233.507599 295.277557,233.138718 297.127197,232.967850 
	C299.265350,232.770294 301.086151,233.010849 299.178162,236.149658 
z"/>
<path fill="#FFEFE8" opacity="1.000000" stroke="none" 
	d="
M310.309937,241.215439 
	C307.494354,244.879761 305.108582,248.445480 302.421112,251.767151 
	C301.439819,252.980042 299.741608,253.612946 298.370453,254.510437 
	C298.456207,252.890091 297.976501,250.920456 298.724670,249.709335 
	C302.129578,244.197678 305.729065,238.785263 309.635651,233.622482 
	C310.400635,232.611511 312.825317,232.783646 314.504364,232.557770 
	C316.143494,232.337265 317.810333,232.190384 319.460876,232.222687 
	C321.208832,232.256882 323.894226,231.941757 324.475067,232.856049 
	C325.334503,234.208878 325.398010,236.918015 324.574036,238.338043 
	C321.493469,243.647064 318.002380,248.729385 314.442810,253.738663 
	C313.772278,254.682297 312.083191,254.902206 310.864136,255.456085 
	C310.380280,255.006424 309.896423,254.556747 309.412537,254.107086 
	C312.978363,248.601562 316.544189,243.096054 320.110016,237.590530 
	C319.824524,237.184052 319.539032,236.777557 319.253540,236.371063 
	C316.375793,237.920776 313.498047,239.470490 310.309937,241.215439 
z"/>
<path fill="#FFF1EA" opacity="1.000000" stroke="none" 
	d="
M149.522949,243.540726 
	C147.567978,246.670731 146.012192,249.641724 144.030716,252.294769 
	C143.224869,253.373749 141.493790,253.761703 140.183685,254.464081 
	C140.168472,253.109070 139.619797,251.419250 140.225601,250.454025 
	C143.850937,244.677719 147.710800,239.046692 151.581375,233.428513 
	C152.099182,232.676880 153.670715,231.656754 153.830154,231.798737 
	C157.406235,234.983307 161.045670,231.166641 164.426819,232.048645 
	C165.660492,232.370453 167.511795,235.399826 167.129761,236.053619 
	C163.387756,242.457748 159.274231,248.648560 155.115204,254.797791 
	C154.794037,255.272659 153.328201,254.973328 150.579224,255.151489 
	C154.906281,248.549072 158.520096,243.034973 162.133911,237.520874 
	C161.740723,237.020706 161.347534,236.520523 160.954346,236.020355 
	C157.219879,238.431503 153.485413,240.842667 149.522949,243.540726 
z"/>
<path fill="#FFEFE7" opacity="1.000000" stroke="none" 
	d="
M342.700287,250.181976 
	C338.916565,251.951691 335.434937,253.970749 331.693695,254.761749 
	C329.479736,255.229843 325.242798,254.344040 324.764954,253.030487 
	C323.879700,250.597015 324.012054,246.258957 325.625671,244.746384 
	C329.989227,240.655975 335.210999,237.387894 340.423859,234.365372 
	C341.652740,233.652863 344.187775,235.193039 346.121948,235.696930 
	C345.582977,237.664291 345.659546,240.614334 344.387390,241.411224 
	C340.841064,243.632706 336.701508,244.888748 332.869354,246.682312 
	C331.546997,247.301239 330.440186,248.380737 329.234894,249.249832 
	C330.770782,249.741653 332.410675,250.832275 333.818665,250.587723 
	C336.040405,250.201843 338.076508,248.837708 340.248230,248.043533 
	C341.858368,247.454727 343.854340,246.700439 342.700287,250.181976 
z"/>
<path fill="#FFF0E8" opacity="1.000000" stroke="none" 
	d="
M135.616898,232.143127 
	C140.554062,232.161987 142.300507,234.123978 141.621674,238.389023 
	C140.473862,245.600479 130.115967,255.027481 122.683228,255.625381 
	C117.495018,256.042725 115.021927,253.035004 117.084488,248.163391 
	C120.534477,240.014801 127.045006,235.084747 135.616898,232.143127 
M136.112976,238.379700 
	C129.580109,237.536621 122.323128,243.596466 122.105247,250.076660 
	C127.627426,251.307587 133.493195,246.796036 136.112976,238.379700 
z"/>
<path fill="#FFEFE8" opacity="1.000000" stroke="none" 
	d="
M196.099030,255.675751 
	C190.568253,254.516052 189.105835,252.269943 191.258087,247.687454 
	C195.079483,239.551102 201.672852,234.395401 210.261658,232.048370 
	C214.433945,230.908188 217.113602,234.728043 215.256363,239.563614 
	C211.944916,248.185471 205.740524,253.787064 196.099030,255.675751 
M196.149826,250.099472 
	C202.441833,251.429962 210.315811,244.294632 209.614456,237.897949 
	C202.907074,238.536530 197.431747,243.098038 196.149826,250.099472 
z"/>
<path fill="#FFF0E9" opacity="1.000000" stroke="none" 
	d="
M75.510330,243.576294 
	C80.780067,239.669266 85.538872,235.492538 90.983643,232.612747 
	C95.298744,230.330444 98.336510,233.340637 97.631035,238.265060 
	C96.580620,245.597275 85.784050,255.311157 78.298775,255.658691 
	C73.564163,255.878494 71.456528,253.290970 72.886154,248.755341 
	C73.426003,247.042633 74.477211,245.491089 75.510330,243.576294 
M85.667023,248.308350 
	C88.687096,245.428894 92.194725,242.828033 91.411278,237.354080 
	C87.561729,238.972031 83.912308,240.827805 81.057785,243.524887 
	C79.443161,245.050461 79.134377,247.958099 78.237419,250.243225 
	C80.511749,249.738068 82.786087,249.232910 85.667023,248.308350 
z"/>
<path fill="#FFECE3" opacity="1.000000" stroke="none" 
	d="
M377.679077,250.722687 
	C374.030457,252.240631 370.715576,253.783951 367.232361,254.650192 
	C366.156982,254.917664 364.622742,253.340134 363.298615,252.607376 
	C364.480865,251.792938 365.558594,250.647186 366.867523,250.234299 
	C369.446259,249.420837 372.153229,249.013977 374.893494,248.420212 
	C374.532318,247.341873 374.525940,246.899796 374.313721,246.750763 
	C367.887695,242.237610 367.961456,238.788284 374.911377,234.969757 
	C377.456757,233.571228 380.405609,232.717636 383.275421,232.214417 
	C384.136383,232.063461 385.352264,233.936523 386.405548,234.882324 
	C385.250000,235.659103 384.192017,236.764725 382.918121,237.142746 
	C380.433746,237.879959 377.828522,238.209991 374.814148,239.452042 
	C379.354767,242.651062 383.181213,245.541885 377.679077,250.722687 
z"/>
<path fill="#FFECE4" opacity="1.000000" stroke="none" 
	d="
M364.329865,236.978455 
	C361.728516,237.583145 359.485199,238.313492 357.012634,239.118469 
	C357.560120,240.259827 357.645538,240.830566 357.970917,241.058075 
	C363.924072,245.220306 363.683838,249.086441 356.995514,252.333054 
	C354.507477,253.540771 351.698822,254.337570 348.958984,254.656342 
	C347.835114,254.787079 346.506622,253.158859 345.271210,252.330780 
	C346.389008,251.610016 347.418945,250.578979 348.642670,250.232391 
	C351.267303,249.489105 353.991974,249.099121 356.589417,248.581665 
	C356.509644,247.521759 356.608490,247.045242 356.444641,246.924072 
	C353.594757,244.816681 349.498535,243.266678 352.489258,238.493607 
	C354.816925,234.778748 364.130249,230.822266 366.921997,232.418686 
	C367.672455,232.847824 368.458954,234.854568 368.254181,235.035812 
	C367.245392,235.928589 365.908813,236.450974 364.329865,236.978455 
z"/>
<path fill="#FFEEE6" opacity="1.000000" stroke="none" 
	d="
M438.055420,242.965057 
	C442.057922,236.055084 445.765472,229.391449 449.808441,222.937958 
	C450.665192,221.570419 452.747070,220.970398 454.264465,220.016739 
	C454.088501,221.752228 454.421997,223.764526 453.653839,225.178253 
	C448.674622,234.342133 443.534241,243.422211 438.224365,252.398239 
	C437.485443,253.647369 435.524384,254.173538 434.129028,255.034378 
	C434.066650,253.420502 433.520081,251.622391 434.048615,250.233368 
	C434.979797,247.786057 436.567352,245.588501 438.055420,242.965057 
z"/>
<path fill="#FFEFE8" opacity="1.000000" stroke="none" 
	d="
M107.171936,243.235138 
	C105.153923,246.705795 103.505005,249.986252 101.483971,253.018707 
	C100.820198,254.014664 99.191826,254.367752 98.004555,255.014816 
	C97.893486,253.706833 97.267906,252.152496 97.756683,251.131729 
	C100.484795,245.434235 103.423058,239.833359 106.451164,234.287735 
	C106.915245,233.437820 108.218925,233.046371 109.134285,232.442871 
	C111.391403,235.970428 114.027771,232.814377 116.477272,232.952942 
	C117.955864,233.036591 119.859375,233.674698 120.676987,234.746445 
	C121.296829,235.558945 120.991470,238.058014 120.202507,238.691467 
	C119.397598,239.337708 117.304604,238.130051 116.118134,238.599640 
	C113.108536,239.790802 110.290756,241.466629 107.171936,243.235138 
z"/>
<path fill="#FFEEE5" opacity="1.000000" stroke="none" 
	d="
M263.077576,248.921356 
	C265.583984,244.769760 267.739838,240.806946 270.332550,237.154205 
	C271.393250,235.659836 273.398712,234.836075 274.974365,233.707245 
	C275.518738,234.237427 276.063110,234.767609 276.607452,235.297791 
	C272.592224,241.878479 268.617889,248.485077 264.491669,254.995422 
	C264.123047,255.576996 262.209290,255.980820 261.980988,255.694748 
	C261.372223,254.932022 260.906616,253.668716 261.095245,252.750488 
	C261.350616,251.507324 262.268951,250.400360 263.077576,248.921356 
z"/>
<path fill="#FFE7DB" opacity="1.000000" stroke="none" 
	d="
M280.579773,223.830872 
	C281.131866,225.258041 281.972015,226.973267 281.440125,227.906754 
	C280.856201,228.931625 279.047333,229.446365 277.682159,229.701584 
	C277.355347,229.762665 276.007111,227.349396 276.267700,227.042984 
	C277.364471,225.753540 278.892731,224.831116 280.579773,223.830872 
z"/>
<path fill="#FB6014" opacity="1.000000" stroke="none" 
	d="
M59.215603,120.490753 
	C67.284393,102.830032 81.198685,94.253815 99.833313,95.156807 
	C115.389221,95.910622 129.561066,106.678879 134.701324,122.353287 
	C139.110458,135.798248 136.879822,148.490753 127.889175,159.448975 
	C125.864349,161.916931 121.814758,163.927338 118.627731,164.032028 
	C103.978325,164.513290 89.295303,164.515564 74.646133,164.031097 
	C71.467117,163.925949 67.442154,161.879791 65.407043,159.409393 
	C55.954021,147.934402 54.518620,134.810150 59.215603,120.490753 
z"/>
<path fill="#F05E16" opacity="1.000000" stroke="none" 
	d="
M112.619583,89.938095 
	C112.278793,88.301971 111.722527,86.529297 112.312180,85.311455 
	C118.830414,71.848900 116.539619,68.030998 101.653152,67.981537 
	C96.327469,67.963844 90.995308,67.895180 85.677177,68.116196 
	C79.034218,68.392258 75.611191,73.940605 78.299080,79.933250 
	C79.589844,82.811005 81.143562,85.570801 82.814194,88.846764 
	C80.335526,89.933311 77.973854,90.968582 75.001137,92.271706 
	C72.776070,87.790359 70.189232,83.687492 68.638870,79.224571 
	C65.531006,70.278137 71.855347,60.540474 81.773842,59.820904 
	C91.698944,59.100849 101.770729,59.037178 111.681763,59.854877 
	C122.603653,60.755981 128.331009,71.817879 123.743752,81.751740 
	C122.155571,85.190987 120.214058,88.467079 118.317490,92.036873 
	C116.305855,91.297569 114.621063,90.678391 112.619583,89.938095 
z"/>
<path fill="#F35E15" opacity="1.000000" stroke="none" 
	d="
M105.521408,81.551697 
	C103.626358,88.861191 98.012177,87.534966 93.303070,87.125549 
	C87.185898,86.593712 88.762810,79.904800 85.019524,77.290260 
	C85.285400,76.956963 85.551277,76.623672 85.817154,76.290375 
	C93.007492,76.290375 100.197830,76.290375 108.062019,76.290375 
	C107.213181,78.064377 106.459229,79.640076 105.521408,81.551697 
z"/>
<path fill="#FD7531" opacity="1.000000" stroke="none" 
	d="
M477.597839,247.039642 
	C480.630951,241.741501 485.292877,239.791199 491.764008,238.027786 
	C488.326050,245.244186 483.378448,248.342407 476.530151,250.651001 
	C476.954224,249.017441 477.168640,248.191483 477.597839,247.039642 
z"/>
<path fill="#FC6115" opacity="1.000000" stroke="none" 
	d="
M487.292725,234.460480 
	C487.075653,234.532043 486.596985,234.285034 486.304810,233.778351 
	C486.671265,233.726410 486.851196,233.934174 487.292725,234.460480 
z"/>
<path fill="#FD6E28" opacity="1.000000" stroke="none" 
	d="
M136.182983,238.787460 
	C133.493195,246.796036 127.627426,251.307587 122.105247,250.076660 
	C122.323128,243.596466 129.580109,237.536621 136.182983,238.787460 
z"/>
<path fill="#FD6E28" opacity="1.000000" stroke="none" 
	d="
M195.986542,249.743469 
	C197.431747,243.098038 202.907074,238.536530 209.614456,237.897949 
	C210.315811,244.294632 202.441833,251.429962 195.986542,249.743469 
z"/>
<path fill="#FD6E27" opacity="1.000000" stroke="none" 
	d="
M85.363724,248.518051 
	C82.786087,249.232910 80.511749,249.738068 78.237419,250.243225 
	C79.134377,247.958099 79.443161,245.050461 81.057785,243.524887 
	C83.912308,240.827805 87.561729,238.972031 91.411278,237.354080 
	C92.194725,242.828033 88.687096,245.428894 85.363724,248.518051 
z"/>
</svg>