<svg version="1.1" id="Layer_1" xmlns="http://www.w3.org/2000/svg" xmlns:xlink="http://www.w3.org/1999/xlink" x="0px" y="0px"
	 width="100%" viewBox="0 0 576 384" enable-background="new 0 0 576 384" xml:space="preserve">
<path fill="#000000" opacity="1.000000" stroke="none" 
	d="
M177.582703,278.307861 
	C204.770309,292.431061 233.185913,301.258545 263.271576,304.786377 
	C314.894196,310.839600 363.612244,301.518341 409.656586,277.589203 
	C418.544342,272.970245 422.121460,274.068085 427.254364,282.696869 
	C435.938751,297.295959 444.536743,311.946442 453.176300,326.572205 
	C457.951233,334.655640 456.619781,339.961823 448.170837,344.543488 
	C435.574097,351.374451 422.580017,357.376404 409.153107,362.426331 
	C375.563599,375.059570 340.912628,382.220337 304.989838,383.490692 
	C245.923630,385.579437 190.404907,372.646393 138.290161,344.906952 
	C128.896927,339.907166 127.628326,334.866089 132.972153,325.911499 
	C141.421341,311.753235 149.810349,297.558899 158.192230,283.360596 
	C163.824554,273.819855 167.053909,272.908661 177.582703,278.307861 
M286.641907,336.544678 
	C285.117279,332.145355 283.469727,327.783966 282.097717,323.337524 
	C280.182709,317.131287 275.163879,318.412933 270.592010,318.147675 
	C266.130798,317.888794 265.312714,321.107819 264.627777,324.131805 
	C261.473999,338.055939 258.363007,351.993378 255.537460,365.986786 
	C254.023941,373.482361 257.050049,376.084778 264.614349,374.660156 
	C269.334900,373.771088 269.235382,370.050507 269.619354,366.622070 
	C270.533966,358.455994 272.090668,350.445282 274.451416,342.370361 
	C277.412109,343.695282 277.389160,346.151733 278.224762,348.001465 
	C280.832581,353.774384 285.983948,355.586578 291.586945,352.498962 
	C293.976044,351.182465 295.727661,349.236847 297.205200,346.948853 
	C298.124695,345.524994 298.851440,343.564636 301.164429,343.961121 
	C302.589325,345.432892 302.143311,347.180756 302.154755,348.786194 
	C302.208221,356.275635 302.334930,363.769318 302.145966,371.254150 
	C302.014618,376.457550 305.292328,376.644379 309.057617,376.705414 
	C313.032776,376.769806 316.113892,375.915100 315.982269,371.069397 
	C315.575745,356.104523 314.293243,341.167145 314.592255,326.179657 
	C314.695312,321.013641 310.976471,318.736389 306.979919,317.554810 
	C303.419312,316.502106 301.872131,320.040771 300.309753,322.461182 
	C297.153564,327.350708 294.252472,332.405090 291.254120,337.396271 
	C289.690887,339.998535 288.224670,340.420380 286.641907,336.544678 
M328.874512,372.694885 
	C330.275146,373.968048 332.022034,373.780090 333.628265,373.570343 
	C342.687592,372.387299 351.737122,371.204254 360.432434,368.114838 
	C366.203217,366.064545 370.578674,362.456482 373.570465,357.249115 
	C379.547516,346.845612 374.229797,336.722534 362.192047,335.206207 
	C360.303864,334.968353 358.148743,335.741638 356.401154,333.939911 
	C356.401154,333.543365 356.300690,333.039032 356.415833,332.589996 
	C359.738312,319.633392 351.776123,310.904968 338.658478,313.099640 
	C335.549622,313.619812 332.422302,314.058655 329.288391,314.394348 
	C320.615723,315.323425 319.172363,317.251373 320.630280,326.069275 
	C321.928558,333.921661 322.975861,341.822754 324.528473,349.623810 
	C326.013336,357.084381 325.288086,364.917236 328.874512,372.694885 
M413.060669,338.208740 
	C420.355408,345.794373 423.858002,345.675079 430.951172,337.583038 
	C430.418091,335.908997 429.126129,334.776764 427.796265,333.846466 
	C421.605316,329.515869 416.528198,324.033691 411.570709,318.423828 
	C405.738190,311.823792 399.981232,305.156830 394.122498,298.580353 
	C392.824493,297.123352 391.481110,295.506439 389.177704,295.635437 
	C382.366119,296.016815 378.193390,301.307190 379.627594,307.933716 
	C381.773407,317.848450 382.486481,327.921600 383.505035,337.984314 
	C384.212830,344.977142 383.305725,352.226685 385.714233,359.018127 
	C395.055603,357.768646 397.091125,356.585968 396.570801,351.520203 
	C396.068237,346.627045 397.793945,343.689575 402.060211,341.677185 
	C403.995300,340.764435 405.658783,339.291351 407.506653,338.173553 
	C409.065155,337.230865 410.686646,336.147278 413.060669,338.208740 
M229.357697,330.968597 
	C230.833725,326.034943 232.573074,321.161072 233.709885,316.150452 
	C234.792542,311.378571 230.741211,310.510498 227.528091,309.199799 
	C224.924423,308.137726 223.713089,309.633392 223.194489,311.805023 
	C220.332169,323.791138 214.429092,334.809967 212.081818,346.957886 
	C210.113205,357.145996 216.295563,366.231293 226.972977,368.748444 
	C238.227737,371.401733 247.982620,366.306702 250.231369,355.752197 
	C252.510239,345.056488 253.985596,334.180634 255.548248,323.345490 
	C256.228027,318.631958 253.555588,315.736328 248.661621,315.495636 
	C244.487961,315.290375 244.835098,318.831329 244.293686,321.452301 
	C242.210846,331.535339 240.379486,341.674988 238.063812,351.703369 
	C236.743011,357.423248 232.696335,360.346588 228.668640,359.390045 
	C225.188339,358.563507 223.501312,354.302185 224.266846,348.973267 
	C225.125305,342.997498 227.215805,337.391266 229.357697,330.968597 
M215.727829,311.177551 
	C215.116135,307.362701 214.644684,303.387665 210.221085,301.930328 
	C204.986313,300.205811 199.942993,298.093018 195.062180,295.525726 
	C193.216919,294.555145 191.104980,293.419006 189.680206,296.518036 
	C188.433456,299.229828 187.037704,301.792419 190.391052,303.905243 
	C193.309113,305.743774 196.321259,307.432922 199.239853,309.157410 
	C199.169769,310.274261 198.367615,310.663147 197.679993,311.033752 
	C185.217972,317.750885 172.770889,324.497070 160.242889,331.089386 
	C157.751877,332.400208 154.501556,332.868683 154.538986,336.470551 
	C154.575928,340.024139 156.901489,342.118134 160.029007,343.510864 
	C168.092331,347.101776 176.175583,350.655731 184.143097,354.450653 
	C188.125443,356.347473 189.847092,353.813599 191.127350,351.105835 
	C192.667664,347.848114 190.056717,346.876862 187.569550,345.884521 
	C182.562363,343.886749 177.630493,341.700226 172.876175,339.680206 
	C173.253265,336.816650 174.980499,336.302399 176.404358,335.553894 
	C188.504486,329.192993 200.215393,322.162079 211.864685,315.023743 
	C213.264664,314.165894 214.953232,313.659424 215.727829,311.177551 
z"/>
<path fill="#000000" opacity="1.000000" stroke="none" 
	d="
M262.491302,145.801086 
	C260.767181,150.443329 261.199463,155.031799 260.351257,159.429230 
	C260.006592,161.216156 260.026001,163.122131 259.405060,164.798065 
	C257.312164,170.447037 255.585587,175.912231 258.228943,182.028595 
	C259.511749,184.996826 257.715881,187.219177 254.233765,187.262360 
	C249.404617,187.322250 244.572952,187.318069 239.744507,187.226883 
	C237.855820,187.191208 235.989868,186.627594 235.255371,184.650940 
	C234.448593,182.479752 235.932281,180.889267 237.557938,180.207367 
	C246.476715,176.466309 247.210876,169.171814 246.870148,160.869232 
	C246.619019,154.750015 247.433975,148.585281 247.807907,142.442917 
	C247.993958,139.386765 248.990082,136.635269 250.766251,134.092117 
	C254.894394,128.181458 259.551849,122.646011 265.173645,118.239258 
	C271.887817,112.976227 275.801514,106.752869 275.985809,98.088020 
	C276.065674,94.334900 277.075073,90.601547 277.810913,85.911690 
	C274.334991,90.397522 273.058258,94.922905 270.790192,98.909103 
	C268.321259,103.248390 265.924133,103.961082 261.888824,101.048111 
	C252.369919,94.176704 244.690399,85.363083 236.854050,76.736595 
	C235.699249,75.465340 235.031433,73.931541 236.124634,72.217751 
	C238.164062,71.335205 239.575928,73.178207 241.763901,73.357086 
	C244.090958,69.214561 246.008789,69.914894 248.592270,73.864021 
	C252.303848,79.537621 257.039001,84.420937 263.090637,88.183578 
	C265.439941,84.845039 266.290039,81.310410 267.000519,77.754059 
	C267.914246,73.180046 270.330750,70.324562 275.163879,69.647804 
	C276.761566,69.424095 278.443634,68.804169 279.777802,67.905952 
	C282.548645,66.040489 283.198090,63.234447 280.104675,61.521294 
	C272.872650,57.516102 271.429077,50.538376 270.813354,43.575935 
	C270.007233,34.460609 276.167725,25.740250 287.299774,29.609259 
	C290.594543,30.754375 293.842163,32.053188 297.049713,33.425766 
	C300.055511,34.712017 303.284424,35.496407 306.308472,34.578911 
	C312.237396,32.780083 314.963531,36.141159 317.230774,40.530373 
	C318.526764,43.039265 319.544189,45.686489 319.390808,49.928730 
	C323.782623,46.374672 326.632568,43.092278 326.545868,38.393867 
	C326.418427,31.488619 328.700317,24.503668 325.997345,17.657904 
	C325.781311,17.110825 325.930115,15.842617 326.122681,15.796294 
	C330.197540,14.816148 328.971680,10.202411 331.278381,8.014247 
	C333.979614,9.001652 334.200745,11.205017 334.345581,13.342405 
	C335.030762,23.453880 335.714630,33.566147 336.279602,43.684795 
	C336.588623,49.219742 333.842346,53.575859 330.403015,57.577324 
	C324.745514,64.159500 318.372375,70.030678 311.922272,75.800148 
	C309.543854,77.927589 308.136017,80.365883 307.554962,83.389694 
	C306.195801,90.463158 303.997894,97.249733 300.518921,103.572632 
	C299.267761,105.846619 299.873657,107.572220 300.735901,109.981857 
	C303.207367,116.888428 308.232086,120.896744 313.990814,124.815567 
	C319.465179,128.540863 324.150940,133.404922 329.360840,137.545059 
	C333.902557,141.154236 335.275513,146.011765 334.767212,151.305481 
	C334.222900,156.973572 334.543854,162.618027 334.324799,168.267120 
	C334.168365,172.302078 335.524475,175.185211 339.341187,177.161392 
	C342.308075,178.697556 346.761536,180.380264 345.689667,184.443985 
	C344.551117,188.760681 339.813019,187.297607 336.529327,187.239227 
	C332.741486,187.171906 328.318817,189.334976 325.318207,186.885208 
	C321.967316,184.149445 326.183105,180.327454 325.829041,176.721848 
	C325.220337,170.523239 322.399200,164.740921 322.191620,158.706268 
	C321.936310,151.283966 318.044739,148.056488 311.953522,145.453674 
	C304.573059,142.299957 297.800842,138.157150 293.087738,131.198929 
	C291.184296,128.388779 287.840118,127.109253 284.727417,129.277405 
	C277.242737,134.490845 269.988586,140.035156 262.491302,145.801086 
z"/>
<path fill="#000000" opacity="1.000000" stroke="none" 
	d="
M335.399811,192.698074 
	C337.845673,192.670609 339.844696,192.650253 341.843353,192.668701 
	C343.524506,192.684219 345.349518,192.633698 346.069427,194.563873 
	C346.686127,196.217331 346.548126,198.167465 345.151917,199.203857 
	C341.509979,201.907181 341.276306,205.987839 340.332275,209.811569 
	C337.701904,220.466156 335.050568,231.111755 331.332977,241.460007 
	C330.260834,244.444412 328.919495,247.162628 325.300995,247.185257 
	C321.778595,247.207291 321.287262,244.054291 320.515808,241.628067 
	C318.520386,235.352386 316.768158,228.999374 314.743378,222.077530 
	C312.316467,228.343170 310.145386,234.056839 307.877350,239.731796 
	C307.264954,241.264145 306.522369,242.800415 305.545685,244.116882 
	C304.357941,245.717865 302.874146,247.362106 300.626556,247.007019 
	C298.380920,246.652237 297.399292,244.695877 296.860840,242.746872 
	C294.426361,233.935333 292.052368,225.106293 289.756622,216.257599 
	C288.880981,212.882599 288.372528,209.412598 287.505829,206.034866 
	C286.992950,204.036118 286.825226,201.870255 284.192810,200.925629 
	C282.027710,200.148697 282.312561,197.942383 283.015045,196.180054 
	C284.438660,192.608459 294.884796,190.959366 297.359863,193.841003 
	C298.058685,194.654602 298.504944,195.764328 298.002960,196.614426 
	C294.748260,202.126465 297.807800,207.289200 298.858795,212.502899 
	C299.757843,216.962845 301.182220,221.316895 302.904541,225.693573 
	C306.594727,219.090912 308.130402,212.010757 309.642548,204.923019 
	C309.884644,203.788300 310.023010,202.618973 310.388458,201.525528 
	C311.336212,198.689850 312.975281,196.101685 316.182678,196.151260 
	C319.178802,196.197586 320.004028,199.038452 320.556244,201.507721 
	C321.896027,207.498566 323.097656,213.520203 324.373566,219.525467 
	C324.811279,221.585648 324.866577,223.785095 326.747681,226.091415 
	C329.516510,218.671417 330.787415,211.345398 332.576874,204.173279 
	C332.816467,203.212982 332.416107,202.333832 331.734833,201.452606 
	C327.914093,196.510590 328.671387,194.544479 335.399811,192.698074 
z"/>
<path fill="#000000" opacity="1.000000" stroke="none" 
	d="
M160.845779,195.889893 
	C164.618698,192.136246 172.391373,190.837875 176.811478,192.814651 
	C179.552567,194.040527 179.640579,195.950882 178.095215,198.020920 
	C176.546234,200.095749 176.951645,201.780197 178.038345,203.941650 
	C181.757874,211.339706 184.343781,219.299454 189.535156,227.445084 
	C189.926926,218.729507 190.271042,211.232498 190.594330,203.734573 
	C190.651642,202.405182 189.709488,201.821060 188.773941,201.026825 
	C185.589401,198.323303 186.165695,194.576584 190.050247,192.848465 
	C193.905533,191.133347 198.027145,191.487091 201.773621,192.886887 
	C205.316116,194.210464 204.783676,197.225906 202.450378,199.211670 
	C199.655716,201.590134 199.254883,204.363297 199.300613,207.661728 
	C199.416107,215.990829 199.341583,224.322510 199.354080,232.653152 
	C199.356827,234.475906 199.431229,236.191772 200.469574,237.909027 
	C202.644440,241.505936 200.985657,243.880402 197.489990,245.327164 
	C194.466507,246.578522 191.277023,246.361481 188.118774,246.178329 
	C186.718719,246.097168 185.052155,245.402725 185.105942,244.030655 
	C185.387817,236.839737 179.242416,232.704803 177.128601,226.683258 
	C176.652664,225.327469 175.751266,224.121048 174.637619,222.950699 
	C175.512939,228.299988 171.922012,234.059464 177.373718,239.046173 
	C179.768768,241.236954 177.319794,243.930511 174.877670,245.456360 
	C172.923309,246.677475 170.673065,246.427933 168.536545,246.316620 
	C166.001740,246.184540 162.797165,247.427429 161.297165,244.418930 
	C159.945053,241.707047 162.094894,239.780273 163.870789,237.976318 
	C165.035660,236.793030 165.022858,235.241974 165.002441,233.751648 
	C164.892807,225.756973 164.966263,217.749298 164.489548,209.775223 
	C164.293243,206.491699 164.586227,202.721909 161.027939,200.369644 
	C159.673935,199.474533 159.920853,197.702789 160.845779,195.889893 
z"/>
<path fill="#000000" opacity="1.000000" stroke="none" 
	d="
M416.416077,223.174194 
	C415.075745,224.696426 413.988861,225.959152 412.769653,227.077652 
	C409.832886,229.771820 410.057587,231.929504 413.557892,233.884460 
	C418.194458,236.474030 418.668732,240.216187 414.601410,243.424622 
	C407.058044,249.375061 398.240356,247.297974 389.870514,246.672577 
	C386.814972,246.444275 387.313141,242.888962 388.983948,241.078949 
	C391.189636,238.689529 391.119690,236.178406 391.038147,233.292664 
	C390.784210,224.302917 390.797058,215.305878 390.666351,206.312241 
	C390.642914,204.697830 390.837891,203.116592 389.433014,201.689499 
	C385.647736,197.844482 386.315155,194.571350 391.595917,193.395340 
	C399.603058,191.612152 407.946930,191.582840 414.156158,197.743683 
	C420.245087,203.785172 420.514740,211.707108 418.085846,219.688492 
	C417.750702,220.789825 417.109100,221.797882 416.416077,223.174194 
M400.182190,211.503662 
	C400.225830,213.164001 400.233093,214.826263 400.320129,216.484329 
	C400.545471,220.776245 402.627563,221.856842 406.415039,219.675262 
	C410.958862,217.058029 411.876373,211.650131 408.416992,206.735321 
	C406.789581,204.423233 404.658264,201.735397 401.593536,202.803162 
	C398.897919,203.742325 400.405884,206.879318 400.185455,209.070038 
	C400.135895,209.562759 400.187744,210.065674 400.182190,211.503662 
z"/>
<path fill="#000000" opacity="1.000000" stroke="none" 
	d="
M453.974854,217.277802 
	C452.729126,222.645218 449.620544,226.211929 445.610687,229.021683 
	C446.090637,231.233078 446.598450,233.115631 448.602753,234.140671 
	C453.560730,236.676315 453.633514,240.593552 449.194916,244.036423 
	C444.140625,247.956802 438.322449,246.991547 432.672699,247.324692 
	C431.512268,247.393127 430.342316,247.373611 429.180023,247.321518 
	C427.064606,247.226685 424.610321,247.761566 423.351440,245.441925 
	C422.052307,243.048126 423.759674,241.374496 425.254059,239.784866 
	C427.661835,237.223633 426.795563,234.032822 426.520782,231.213425 
	C425.808899,223.908386 426.115295,216.593750 425.794159,209.291107 
	C425.651550,206.047760 426.194977,202.933670 422.872528,200.367203 
	C420.408783,198.464066 422.070435,195.203720 425.846039,193.647003 
	C440.137970,187.754303 454.449982,197.162888 454.334900,212.389526 
	C454.323639,213.882614 454.177826,215.374680 453.974854,217.277802 
M445.321503,210.330994 
	C444.342987,207.392868 442.695374,204.925980 439.977509,203.366638 
	C437.108734,201.720749 435.178955,202.069687 435.239288,205.957626 
	C435.288269,209.116394 435.198700,212.281036 435.365417,215.432785 
	C435.462433,217.266632 434.429962,219.748169 437.090851,220.571457 
	C439.328400,221.263794 441.313477,220.213852 443.029572,218.739578 
	C445.416046,216.689423 446.016693,214.056396 445.321503,210.330994 
z"/>
<path fill="#000000" opacity="1.000000" stroke="none" 
	d="
M347.708191,229.900986 
	C345.280884,215.628815 347.221252,203.270767 359.725800,194.561142 
	C361.493286,193.330032 361.939880,189.636246 364.914917,190.856415 
	C369.756317,192.842056 375.154236,194.214676 378.427368,198.784286 
	C385.994904,209.349457 387.104950,220.770721 382.416168,232.804932 
	C380.623291,237.406540 377.777283,241.217896 373.673889,244.063141 
	C366.258789,249.204697 357.977234,247.932480 352.574219,240.663040 
	C350.274475,237.568848 348.691895,234.083481 347.708191,229.900986 
M373.351746,230.645340 
	C375.606567,223.622284 375.785553,216.657227 372.666626,209.822372 
	C372.064636,208.503159 371.356445,206.344376 369.824310,206.835495 
	C366.426849,207.924515 364.186798,205.818741 361.711060,204.577789 
	C355.675568,210.304565 354.666840,222.098175 359.201508,231.109344 
	C360.867340,234.419601 363.253662,237.201096 366.978027,237.272263 
	C370.374298,237.337128 371.614502,233.977615 373.351746,230.645340 
z"/>
<path fill="#000000" opacity="1.000000" stroke="none" 
	d="
M157.268799,213.147217 
	C158.601913,224.082169 157.155350,233.860107 149.188309,241.620697 
	C140.176514,250.398956 129.182755,248.516022 123.276230,237.481445 
	C116.715225,225.224182 118.294609,202.649933 131.946243,194.870682 
	C133.997238,193.701950 134.489700,189.635971 137.585403,190.872803 
	C142.433197,192.809647 147.674500,194.295914 151.177322,198.683472 
	C154.476837,202.816330 156.182938,207.624008 157.268799,213.147217 
M133.694244,233.735870 
	C139.221283,239.021759 142.653000,238.393143 145.699081,231.603271 
	C148.112717,226.223114 148.383118,220.578827 147.189499,214.984467 
	C146.313721,210.879822 146.068878,205.466766 139.197205,207.013000 
	C138.667557,207.132172 137.888596,206.678619 137.383881,206.287125 
	C133.905365,203.588974 132.336044,205.681610 131.227402,208.738876 
	C128.167587,217.176865 128.397354,225.358978 133.694244,233.735870 
z"/>
<path fill="#000000" opacity="1.000000" stroke="none" 
	d="
M114.397736,231.054626 
	C109.572365,242.087021 97.471275,248.712387 86.737350,246.500702 
	C84.618240,246.064056 82.289948,245.744507 81.722565,243.139587 
	C81.226425,240.861801 82.597466,239.268219 84.380203,238.209244 
	C86.225616,237.113022 86.725540,235.589706 86.652481,233.614548 
	C86.302864,224.161774 85.980995,214.707947 85.669991,205.253815 
	C85.623749,203.848068 85.105751,202.852112 84.029564,201.836655 
	C80.644081,198.642166 81.301758,195.507996 85.592384,193.525101 
	C95.856888,188.781418 109.008316,193.546539 113.453102,203.907303 
	C117.191185,212.620743 117.533257,221.617874 114.397736,231.054626 
M95.315781,216.507080 
	C95.315781,223.348801 95.315781,230.190521 95.315781,237.207230 
	C103.780769,235.542252 107.629753,230.081985 107.644394,221.171982 
	C107.660019,211.662338 102.619247,203.533875 95.704910,202.213760 
	C94.698456,206.627182 95.578743,211.095337 95.315781,216.507080 
z"/>
<path fill="#000000" opacity="1.000000" stroke="none" 
	d="
M477.345154,247.028839 
	C474.436096,247.152710 471.946808,247.101028 469.461578,247.178680 
	C467.692810,247.233963 466.086456,247.028305 465.245483,245.243973 
	C464.506927,243.677048 465.097992,242.138031 466.162811,241.106491 
	C470.004395,237.385056 469.447968,232.839478 468.188080,228.563217 
	C465.796234,220.444916 462.849548,212.490707 460.170990,204.455780 
	C459.624298,202.815842 458.719147,201.621475 457.264282,200.596298 
	C454.554535,198.686844 455.163605,196.319595 457.046997,194.205566 
	C459.161224,191.832428 467.342621,191.171631 469.800415,193.019608 
	C471.009949,193.929031 471.618835,195.264587 470.973389,196.518524 
	C467.557617,203.154724 472.560852,208.000122 474.395935,213.629913 
	C475.923462,208.682709 481.210297,204.604996 477.131134,198.633179 
	C476.233368,197.318832 477.454407,195.741806 478.416595,194.590576 
	C480.174927,192.486801 490.157654,191.651443 492.109589,193.507507 
	C494.155182,195.452667 493.563507,197.851807 491.666290,199.106247 
	C487.794006,201.666595 486.844086,205.697418 485.454468,209.553833 
	C483.259064,215.646317 480.933716,221.708755 479.128723,227.919174 
	C477.954315,231.960007 477.056641,236.007034 480.505981,240.036575 
	C482.786163,242.700348 480.321716,245.232025 477.345154,247.028839 
z"/>
<path fill="#000000" opacity="1.000000" stroke="none" 
	d="
M318.583527,258.786865 
	C321.929047,268.673462 322.139496,278.389740 320.213135,288.144623 
	C319.505676,291.727081 319.539337,296.372345 314.563843,297.037415 
	C308.989777,297.782471 303.399078,297.443481 299.906097,291.990967 
	C296.858185,287.233154 295.672028,281.727234 296.009491,276.267731 
	C296.376465,270.330658 298.113007,264.522675 300.494324,258.995789 
	C301.640900,256.334625 303.302002,254.127853 306.000031,252.803558 
	C311.521362,250.093475 314.535309,251.442780 318.583527,258.786865 
M312.000061,272.712952 
	C311.709442,270.093628 312.106201,267.331238 310.420715,263.908508 
	C307.592041,273.129456 304.352966,281.244904 310.054138,290.528961 
	C312.471252,284.439209 311.851959,278.996307 312.000061,272.712952 
z"/>
<path fill="#000000" opacity="1.000000" stroke="none" 
	d="
M218.873474,195.538116 
	C220.875198,190.798370 223.486252,190.157227 228.139084,191.798172 
	C233.572815,193.714508 239.613724,193.317139 245.281403,191.845245 
	C247.708084,191.215042 250.000839,189.503235 251.843628,192.422501 
	C253.728470,195.408386 252.552765,202.272964 250.054901,203.925232 
	C247.027786,205.927582 244.760330,205.065689 243.071381,202.024429 
	C242.952408,201.810196 242.488800,201.787369 242.122360,201.652267 
	C239.663071,202.415146 240.356750,204.550964 240.345383,206.222595 
	C240.283203,215.371902 240.322937,224.521942 240.335724,233.671722 
	C240.338501,235.662689 240.309235,237.487732 242.298126,238.959305 
	C244.481293,240.574600 243.809662,242.785553 242.343979,244.675522 
	C240.382111,247.205353 231.226074,248.345947 228.801514,246.254059 
	C226.521118,244.286591 227.220764,241.898285 228.912521,240.103821 
	C230.840469,238.058838 231.111404,235.770691 231.091217,233.224701 
	C231.016052,223.751328 231.051437,214.276428 230.884705,204.804916 
	C230.841583,202.355972 230.064026,200.134521 226.957947,202.520981 
	C225.117630,203.934906 223.304199,205.944336 220.786713,204.667053 
	C218.050369,203.278717 218.791977,200.389297 218.700882,197.954285 
	C218.676086,197.292023 218.755859,196.625824 218.873474,195.538116 
z"/>
<path fill="#000000" opacity="1.000000" stroke="none" 
	d="
M293.794067,273.316956 
	C293.985016,279.706940 292.441498,285.142456 289.176819,290.198883 
	C285.436768,295.991577 279.771667,297.092438 273.594666,297.105774 
	C270.942902,297.111511 269.769775,295.460754 269.702484,292.922272 
	C269.390533,281.149506 269.094086,269.376373 268.759125,257.604279 
	C268.673309,254.587509 270.057312,253.168243 273.041138,252.602753 
	C282.158234,250.874908 291.462555,258.285980 293.272400,268.941620 
	C293.494324,270.248260 293.589447,271.576447 293.794067,273.316956 
M282.798401,284.060974 
	C285.347595,279.609375 286.223175,274.764587 285.936768,269.718597 
	C285.711029,265.740997 283.872131,262.974091 278.657013,261.954010 
	C278.657013,269.308044 278.534119,276.213226 278.723572,283.109772 
	C278.790009,285.528473 279.635254,287.898132 282.798401,284.060974 
z"/>
<path fill="#000000" opacity="1.000000" stroke="none" 
	d="
M121.735916,275.747314 
	C133.189285,277.465515 135.078537,288.085724 132.863602,294.630615 
	C130.370972,301.996094 122.051682,305.352173 114.382774,302.178741 
	C108.371063,299.691010 105.373955,293.278168 106.802963,285.960297 
	C108.051300,279.567657 113.287453,275.871277 121.735916,275.747314 
z"/>
<path fill="#000000" opacity="1.000000" stroke="none" 
	d="
M451.814087,301.535767 
	C445.939850,296.926666 443.954773,290.779541 446.062164,284.570557 
	C447.841095,279.329285 452.355072,276.015991 458.134644,275.709320 
	C464.127319,275.391327 469.068390,278.319733 471.374207,283.555969 
	C473.646301,288.715637 472.595978,295.655609 468.730774,299.364929 
	C463.827637,304.070343 458.180054,304.447266 451.814087,301.535767 
z"/>
<path fill="#000000" opacity="1.000000" stroke="none" 
	d="
M214.533539,189.525299 
	C217.343033,194.187622 216.522644,198.850388 215.529068,203.345947 
	C214.946899,205.980042 212.627243,207.504349 209.790176,207.081161 
	C207.047531,206.672058 206.755188,204.320068 206.720261,202.084213 
	C206.681290,199.590042 206.446808,197.028824 206.907272,194.613052 
	C207.635361,190.793213 209.670456,188.174973 214.533539,189.525299 
z"/>
<path fill="#000000" opacity="1.000000" stroke="none" 
	d="
M501.238220,242.753571 
	C500.839569,244.253433 500.561310,245.383484 500.088104,246.424957 
	C499.002106,248.814850 497.305145,250.679504 494.526733,250.684280 
	C491.543884,250.689407 491.303284,248.002167 490.282257,245.954193 
	C488.266846,241.911606 488.595673,238.508255 492.646240,236.203079 
	C497.134827,233.648666 500.654816,236.254272 501.238220,242.753571 
z"/>
<path fill="#000000" opacity="1.000000" stroke="none" 
	d="
M346.762421,362.999451 
	C342.019226,364.165955 339.241943,363.074127 339.232452,357.995331 
	C339.230621,357.022491 338.713531,356.055664 338.676758,355.076965 
	C338.545502,351.580719 334.841644,346.743591 339.470703,344.916809 
	C345.736908,342.443970 352.867035,339.852997 359.462677,344.442413 
	C363.216034,347.054077 363.106537,352.259613 359.759216,356.439331 
	C356.530579,360.470795 351.798737,361.614288 346.762421,362.999451 
z"/>
<path fill="#000000" opacity="1.000000" stroke="none" 
	d="
M333.435181,328.485077 
	C332.001740,324.262970 333.002228,321.927765 337.321930,321.517639 
	C338.467712,321.408813 339.571136,320.912292 340.714203,320.705353 
	C343.677765,320.168823 346.924133,319.269897 348.552460,322.900208 
	C350.074005,326.292419 348.255859,329.166138 346.002075,331.430389 
	C343.357483,334.087219 339.609344,334.226562 336.174225,334.045349 
	C333.126465,333.884552 333.954865,330.880463 333.435181,328.485077 
z"/>
<path fill="#000000" opacity="1.000000" stroke="none" 
	d="
M402.857361,330.897278 
	C400.484619,332.704285 398.606293,334.682404 394.915802,335.146057 
	C393.242157,328.509613 391.905426,321.852509 391.551697,315.027710 
	C392.020966,314.812927 392.490234,314.598114 392.959473,314.383301 
	C396.521973,319.047546 400.108582,323.693726 403.622589,328.394226 
	C404.190552,329.153961 403.671234,329.974457 402.857361,330.897278 
z"/>
</svg>